<svg xmlns="http://www.w3.org/2000/svg" xmlns:xlink="http://www.w3.org/1999/xlink" version="1.1" x="0px" y="0px" viewBox="0 0 100 100" style="enable-background:new 0 0 100 100;" xml:space="preserve"><path fill="#ffffff" d="M50,35c-7.815,0-14.245,6.009-14.932,13.648c-0.067,0.18-0.068,0.372-0.028,0.558C35.026,49.471,35,49.732,35,50  c0,8.271,6.729,15,15,15c8.271,0,15-6.729,15-15C65,41.729,58.271,35,50,35z M54.079,62.335l2.628-2.628  c0.391-0.391,0.391-1.023,0-1.414s-1.023-0.391-1.414,0l-4,4c-0.182,0.182-0.271,0.418-0.283,0.656C50.676,62.975,50.341,63,50,63  c-0.817,0-1.613-0.085-2.388-0.229c0.03-0.024,0.067-0.035,0.095-0.063l4-4c0.391-0.391,0.391-1.023,0-1.414s-1.023-0.391-1.414,0  l-4,4c-0.299,0.299-0.365,0.737-0.207,1.103c-0.988-0.313-1.918-0.751-2.79-1.278l3.411-3.41c0.391-0.391,0.391-1.023,0-1.414  s-1.023-0.391-1.414,0l-3.65,3.65c-0.573-0.482-1.104-1.013-1.586-1.586l3.65-3.65c0.391-0.391,0.391-1.023,0-1.414  s-1.023-0.391-1.414,0l-3.411,3.41c-0.408-0.674-0.756-1.387-1.038-2.134l3.862-3.862c0.391-0.391,0.391-1.023,0-1.414  s-1.023-0.391-1.414,0l-3.067,3.067C37.084,51.594,37,50.807,37,50c0-0.208,0.021-0.411,0.031-0.617l3.676-3.676  c0.391-0.391,0.391-1.023,0-1.414s-1.023-0.391-1.414,0l-1.628,1.628C39.381,40.747,44.257,37,50,37c7.168,0,13,5.832,13,13  C63,55.742,59.254,60.619,54.079,62.335z"/><path fill="#ffffff" d="M86.063,35.063c1.02-6.916-0.286-12.925-4.242-16.881c-0.391-0.391-1.023-0.391-1.414,0s-0.391,1.023,0,1.414  c3.355,3.355,4.565,8.386,3.891,14.246c-3.493-2.285-7.708-4.217-12.451-5.687C67.57,14.357,59.383,5,50,5  c-5.578,0-10.733,3.307-14.897,8.885c-1.479-0.219-2.923-0.332-4.321-0.332c-5.217,0-9.575,1.6-12.602,4.626  c-3.896,3.895-5.364,9.794-4.298,16.925C8.306,39.269,5,44.423,5,50c0,5.596,3.327,10.768,8.938,14.938  c-1.019,6.918,0.286,12.927,4.243,16.883c3.103,3.104,7.465,4.575,12.54,4.575c5.771-0.001,12.46-1.922,19.255-5.498  c4.348,2.308,8.689,3.963,12.805,4.832C59.123,90.318,54.727,93,50,93c-0.552,0-1,0.447-1,1s0.448,1,1,1  c5.578,0,10.733-3.307,14.896-8.886c1.48,0.22,2.924,0.332,4.322,0.332c5.217,0,9.574-1.6,12.602-4.626  c4.804-4.804,5.918-12.653,3.139-22.103c-0.945-3.218-2.316-6.495-4.044-9.755c2.304-4.38,3.911-8.713,4.763-12.787  C90.299,40.842,93,45.255,93,50c0,0.553,0.447,1,1,1s1-0.447,1-1C95,44.405,91.674,39.233,86.063,35.063z M50,7  c8.271,0,15.535,8.209,19.589,20.497c-2.998-0.809-6.185-1.432-9.506-1.856c-7.519-5.821-15.545-9.825-22.864-11.37  C40.877,9.682,45.273,7,50,7z M73,50c0,3.194-0.193,6.305-0.549,9.302c-1.867,2.37-3.93,4.704-6.188,6.962  c-5.175,5.176-10.747,9.354-16.242,12.399c-2.079-1.148-4.156-2.456-6.21-3.905C45.836,74.913,47.899,75,50,75c0.552,0,1-0.447,1-1  s-0.448-1-1-1c-3.188,0-6.293-0.192-9.286-0.547c-2.392-1.881-4.733-3.945-6.977-6.189c-5.085-5.086-9.308-10.646-12.409-16.268  c1.146-2.069,2.455-4.149,3.916-6.215C25.087,45.815,25,47.889,25,50c0,0.553,0.448,1,1,1s1-0.447,1-1  c0-3.193,0.193-6.302,0.548-9.298c1.868-2.371,3.931-4.706,6.189-6.964c0.391-0.391,0.391-1.023,0-1.414s-1.023-0.391-1.414,0  c-1.494,1.494-2.899,3.022-4.227,4.573c0.428-2.497,0.975-4.896,1.628-7.172C35.769,27.988,42.672,27,50,27  c3.189,0,6.294,0.192,9.287,0.546c2.392,1.882,4.732,3.946,6.977,6.19c2.239,2.239,4.305,4.573,6.188,6.961  C72.807,43.695,73,46.806,73,50z M74.756,43.778c1.451,2.053,2.764,4.135,3.916,6.226c-1.146,2.07-2.455,4.152-3.916,6.219  C74.912,54.188,75,52.112,75,50C75,47.888,74.912,45.813,74.756,43.778z M36.888,71.902c-8.354-1.434-15.597-4.2-20.863-7.829  c0.695-3.778,2.112-7.839,4.197-11.981c3.124,5.399,7.226,10.711,12.101,15.586C33.807,69.161,35.333,70.569,36.888,71.902z   M20.243,47.929c-1.379-2.751-2.486-5.504-3.283-8.211c-0.385-1.308-0.681-2.576-0.909-3.809c3.166-2.177,7.04-4.044,11.445-5.498  c-0.808,2.997-1.431,6.181-1.855,9.501C23.597,42.556,21.788,45.244,20.243,47.929z M30.411,27.497  c1.452-4.402,3.318-8.274,5.493-11.438c6.414,1.166,13.481,4.384,20.285,9.184C54.165,25.087,52.101,25,50,25  C42.982,25,36.336,25.898,30.411,27.497z M67.678,32.322c-1.482-1.483-3.009-2.892-4.564-4.225c2.494,0.428,4.889,0.974,7.162,1.626  c0.652,2.272,1.198,4.666,1.626,7.158C70.567,35.329,69.16,33.805,67.678,32.322z M19.595,19.594  c2.644-2.644,6.512-4.041,11.188-4.041c0.984,0,2,0.079,3.029,0.195c-2.271,3.484-4.194,7.683-5.657,12.405  c-4.729,1.465-8.933,3.391-12.42,5.667C15.032,27.789,16.34,22.849,19.595,19.594z M7,50c0-4.727,2.683-9.124,7.272-12.782  c0.212,1.002,0.463,2.021,0.77,3.064c0.946,3.218,2.316,6.495,4.044,9.757c-2.304,4.379-3.911,8.713-4.763,12.786  C9.701,59.158,7,54.745,7,50z M19.595,80.406c-3.355-3.355-4.566-8.386-3.891-14.246c6.175,4.038,14.612,6.973,24.214,8.199  c2.627,2.034,5.314,3.848,8.015,5.408C36.381,85.588,25.443,86.256,19.595,80.406z M52.066,79.747  c5.318-3.06,10.651-7.108,15.611-12.069c1.493-1.492,2.898-3.021,4.226-4.57c-1.431,8.338-4.189,15.57-7.808,20.834  C60.255,83.244,56.182,81.817,52.066,79.747z M83.041,60.282c2.563,8.715,1.627,15.861-2.635,20.124  c-2.644,2.643-6.512,4.04-11.188,4.04c-0.984,0-2-0.079-3.03-0.195c4.022-6.169,6.946-14.584,8.17-24.159  c2.045-2.645,3.854-5.334,5.4-8.02C81.137,54.822,82.244,57.576,83.041,60.282z M79.779,47.909  c-1.568-2.711-3.387-5.399-5.424-8.021c-0.424-3.311-1.046-6.488-1.852-9.477c4.417,1.457,8.301,3.331,11.472,5.516  C83.28,39.705,81.863,43.766,79.779,47.909z"/></svg>